<svg xmlns="http://www.w3.org/2000/svg" xmlns:xlink="http://www.w3.org/1999/xlink" xmlns:serif="http://www.serif.com/" width="100%" height="100%" viewBox="0 0 591 591" version="1.1" xml:space="preserve" style="fill-rule:evenodd;clip-rule:evenodd;stroke-linejoin:round;stroke-miterlimit:2;">
    <g transform="matrix(1,0,0,1,-3.0625,-3.02086)">
        <g transform="matrix(4.16667,0,0,4.16667,0,0)">
            <path d="M142.467,122.46C142.467,133.458 133.468,142.457 122.47,142.457L20.732,142.457C9.734,142.457 0.735,133.458 0.735,122.46L0.735,20.723C0.735,9.724 9.734,0.725 20.732,0.725L122.47,0.725C133.468,0.725 142.467,9.724 142.467,20.723L142.467,122.46Z" style="fill:rgb(35,31,32);fill-rule:nonzero;"/>
            <path d="M17.576,76.762L29.21,76.762C38.001,76.762 45.242,83.667 45.242,92.54C45.242,101.415 37.957,108.321 29.21,108.321L17.576,108.321L17.576,76.762ZM25.78,101.373L27.621,101.373C32.518,101.373 36.702,98.691 36.702,92.54C36.702,86.893 32.978,83.709 27.705,83.709L25.78,83.709L25.78,101.373Z" style="fill:white;fill-rule:nonzero;"/>
            <rect x="48.127" y="86.848" width="7.619" height="21.473" style="fill:white;fill-rule:nonzero;"/>
            <path d="M83.456,106.226C83.456,115.351 78.934,119.034 71.025,119.034C66.085,119.034 59.474,116.482 58.804,110.832L67.343,110.832C67.55,111.583 68.094,112.127 68.764,112.462C69.435,112.796 70.229,112.964 70.941,112.964C75.044,112.964 75.838,110.286 75.838,106.813L75.838,105.809C73.871,107.776 71.861,108.738 69.017,108.738C62.739,108.738 58.427,103.966 58.427,97.773C58.427,91.494 62.864,86.136 69.435,86.136C71.946,86.136 74.248,86.972 75.756,89.11L75.838,89.11L75.838,86.848L83.456,86.848L83.456,106.226ZM66.294,97.438C66.294,100.16 68.094,102.251 71.192,102.251C74.29,102.251 76.089,100.16 76.089,97.438C76.089,94.802 74.29,92.582 71.192,92.582C68.094,92.582 66.294,94.802 66.294,97.438Z" style="fill:white;fill-rule:nonzero;"/>
            <rect x="87.472" y="86.848" width="7.618" height="21.473" style="fill:rgb(248,152,40);fill-rule:nonzero;"/>
            <path d="M99.56,76.762L111.194,76.762C119.984,76.762 127.224,83.667 127.224,92.54C127.224,101.415 119.942,108.321 111.194,108.321L99.56,108.321L99.56,76.762ZM107.762,101.373L109.603,101.373C114.5,101.373 118.686,98.691 118.686,92.54C118.686,86.893 114.96,83.709 109.686,83.709L107.762,83.709L107.762,101.373Z" style="fill:rgb(248,152,40);fill-rule:nonzero;"/>
            <path d="M56.243,78.673C56.243,81.015 54.317,82.942 51.973,82.942C49.629,82.942 47.704,81.015 47.704,78.673C47.704,76.329 49.629,74.404 51.973,74.404C54.317,74.404 56.243,76.329 56.243,78.673Z" style="fill:white;fill-rule:nonzero;"/>
            <path d="M95.457,78.673C95.457,81.015 93.531,82.94 91.189,82.94C88.842,82.94 86.918,81.015 86.918,78.673C86.918,76.329 88.842,74.404 91.189,74.404C93.531,74.404 95.457,76.329 95.457,78.673Z" style="fill:rgb(248,152,40);fill-rule:nonzero;"/>
        </g>
    </g>
</svg>
